<mxfile host="Electron" modified="2023-09-11T10:52:54.229Z" agent="Mozilla/5.0 (X11; Linux x86_64) AppleWebKit/537.36 (KHTML, like Gecko) draw.io/21.6.8 Chrome/114.0.5735.289 Electron/25.5.0 Safari/537.36" etag="qTiLeJjaiX1T3RKPzDSC" version="21.6.8" type="device">
  <diagram name="Page-1" id="MCpMqmrJ8vnDkDQt-25c">
    <mxGraphModel dx="1010" dy="624" grid="1" gridSize="10" guides="1" tooltips="1" connect="1" arrows="1" fold="1" page="1" pageScale="1" pageWidth="850" pageHeight="1100" math="0" shadow="0">
      <root>
        <mxCell id="0" />
        <mxCell id="1" parent="0" />
        <mxCell id="6Yh1_W6eSsMe6pJE7CTc-1" value="users" style="swimlane;fontStyle=0;childLayout=stackLayout;horizontal=1;startSize=26;fillColor=default;horizontalStack=0;resizeParent=1;resizeLast=0;collapsible=1;marginBottom=0;swimlaneFillColor=default;align=center;" parent="1" vertex="1">
          <mxGeometry width="190" height="160" as="geometry" />
        </mxCell>
        <mxCell id="6Yh1_W6eSsMe6pJE7CTc-2" value="&quot;id&quot;&#x9;INTEGER" style="shape=partialRectangle;top=0;left=0;right=0;bottom=0;align=left;verticalAlign=top;spacingTop=-2;fillColor=none;spacingLeft=64;spacingRight=4;overflow=hidden;rotatable=0;points=[[0,0.5],[1,0.5]];portConstraint=eastwest;dropTarget=0;" parent="6Yh1_W6eSsMe6pJE7CTc-1" vertex="1">
          <mxGeometry y="26" width="190" height="26" as="geometry" />
        </mxCell>
        <mxCell id="6Yh1_W6eSsMe6pJE7CTc-3" value="" style="shape=partialRectangle;top=0;left=0;bottom=0;fillColor=none;align=left;verticalAlign=middle;spacingLeft=4;spacingRight=4;overflow=hidden;rotatable=180;points=[];portConstraint=eastwest;part=1;" parent="6Yh1_W6eSsMe6pJE7CTc-2" vertex="1" connectable="0">
          <mxGeometry width="54" height="26" as="geometry" />
        </mxCell>
        <mxCell id="6Yh1_W6eSsMe6pJE7CTc-4" value="&quot;name&quot;&#x9;TEXT" style="shape=partialRectangle;top=0;left=0;right=0;bottom=0;align=left;verticalAlign=top;spacingTop=-2;fillColor=none;spacingLeft=64;spacingRight=4;overflow=hidden;rotatable=0;points=[[0,0.5],[1,0.5]];portConstraint=eastwest;dropTarget=0;" parent="6Yh1_W6eSsMe6pJE7CTc-1" vertex="1">
          <mxGeometry y="52" width="190" height="26" as="geometry" />
        </mxCell>
        <mxCell id="6Yh1_W6eSsMe6pJE7CTc-5" value="" style="shape=partialRectangle;top=0;left=0;bottom=0;fillColor=none;align=left;verticalAlign=middle;spacingLeft=4;spacingRight=4;overflow=hidden;rotatable=180;points=[];portConstraint=eastwest;part=1;" parent="6Yh1_W6eSsMe6pJE7CTc-4" vertex="1" connectable="0">
          <mxGeometry width="54" height="26" as="geometry" />
        </mxCell>
        <mxCell id="6Yh1_W6eSsMe6pJE7CTc-6" value="&quot;mail&quot;&#x9;TEXT" style="shape=partialRectangle;top=0;left=0;right=0;bottom=0;align=left;verticalAlign=top;spacingTop=-2;fillColor=none;spacingLeft=64;spacingRight=4;overflow=hidden;rotatable=0;points=[[0,0.5],[1,0.5]];portConstraint=eastwest;dropTarget=0;" parent="6Yh1_W6eSsMe6pJE7CTc-1" vertex="1">
          <mxGeometry y="78" width="190" height="26" as="geometry" />
        </mxCell>
        <mxCell id="6Yh1_W6eSsMe6pJE7CTc-7" value="" style="shape=partialRectangle;top=0;left=0;bottom=0;fillColor=none;align=left;verticalAlign=middle;spacingLeft=4;spacingRight=4;overflow=hidden;rotatable=180;points=[];portConstraint=eastwest;part=1;" parent="6Yh1_W6eSsMe6pJE7CTc-6" vertex="1" connectable="0">
          <mxGeometry width="54" height="26" as="geometry" />
        </mxCell>
        <mxCell id="6Yh1_W6eSsMe6pJE7CTc-8" value="&quot;password&quot;&#x9;TEXT" style="shape=partialRectangle;top=0;left=0;right=0;bottom=0;align=left;verticalAlign=top;spacingTop=-2;fillColor=none;spacingLeft=64;spacingRight=4;overflow=hidden;rotatable=0;points=[[0,0.5],[1,0.5]];portConstraint=eastwest;dropTarget=0;" parent="6Yh1_W6eSsMe6pJE7CTc-1" vertex="1">
          <mxGeometry y="104" width="190" height="26" as="geometry" />
        </mxCell>
        <mxCell id="6Yh1_W6eSsMe6pJE7CTc-9" value="" style="shape=partialRectangle;top=0;left=0;bottom=0;fillColor=none;align=left;verticalAlign=middle;spacingLeft=4;spacingRight=4;overflow=hidden;rotatable=180;points=[];portConstraint=eastwest;part=1;" parent="6Yh1_W6eSsMe6pJE7CTc-8" vertex="1" connectable="0">
          <mxGeometry width="54" height="26" as="geometry" />
        </mxCell>
        <mxCell id="6Yh1_W6eSsMe6pJE7CTc-10" value="&quot;status_id&quot; INTEGER" style="shape=partialRectangle;top=0;left=0;right=0;bottom=0;align=left;verticalAlign=top;spacingTop=-2;fillColor=none;spacingLeft=64;spacingRight=4;overflow=hidden;rotatable=0;points=[[0,0.5],[1,0.5]];portConstraint=eastwest;dropTarget=0;" parent="6Yh1_W6eSsMe6pJE7CTc-1" vertex="1">
          <mxGeometry y="130" width="190" height="26" as="geometry" />
        </mxCell>
        <mxCell id="6Yh1_W6eSsMe6pJE7CTc-11" value="" style="shape=partialRectangle;top=0;left=0;bottom=0;fillColor=none;align=left;verticalAlign=middle;spacingLeft=4;spacingRight=4;overflow=hidden;rotatable=180;points=[];portConstraint=eastwest;part=1;" parent="6Yh1_W6eSsMe6pJE7CTc-10" vertex="1" connectable="0">
          <mxGeometry width="54" height="26" as="geometry" />
        </mxCell>
        <mxCell id="6Yh1_W6eSsMe6pJE7CTc-12" value="groups" style="swimlane;fontStyle=0;childLayout=stackLayout;horizontal=1;startSize=26;fillColor=default;horizontalStack=0;resizeParent=1;resizeLast=0;collapsible=1;marginBottom=0;swimlaneFillColor=default;align=center;" parent="1" vertex="1">
          <mxGeometry x="250" y="200" width="200" height="78" as="geometry" />
        </mxCell>
        <mxCell id="6Yh1_W6eSsMe6pJE7CTc-13" value="&quot;id&quot;&#x9;INTEGER" style="shape=partialRectangle;top=0;left=0;right=0;bottom=0;align=left;verticalAlign=top;spacingTop=-2;fillColor=none;spacingLeft=64;spacingRight=4;overflow=hidden;rotatable=0;points=[[0,0.5],[1,0.5]];portConstraint=eastwest;dropTarget=0;" parent="6Yh1_W6eSsMe6pJE7CTc-12" vertex="1">
          <mxGeometry y="26" width="200" height="26" as="geometry" />
        </mxCell>
        <mxCell id="6Yh1_W6eSsMe6pJE7CTc-14" value="" style="shape=partialRectangle;top=0;left=0;bottom=0;fillColor=none;align=left;verticalAlign=middle;spacingLeft=4;spacingRight=4;overflow=hidden;rotatable=180;points=[];portConstraint=eastwest;part=1;" parent="6Yh1_W6eSsMe6pJE7CTc-13" vertex="1" connectable="0">
          <mxGeometry width="54" height="26" as="geometry" />
        </mxCell>
        <mxCell id="6Yh1_W6eSsMe6pJE7CTc-15" value="&quot;group&quot;&#x9;TEXT" style="shape=partialRectangle;top=0;left=0;right=0;bottom=0;align=left;verticalAlign=top;spacingTop=-2;fillColor=none;spacingLeft=64;spacingRight=4;overflow=hidden;rotatable=0;points=[[0,0.5],[1,0.5]];portConstraint=eastwest;dropTarget=0;" parent="6Yh1_W6eSsMe6pJE7CTc-12" vertex="1">
          <mxGeometry y="52" width="200" height="26" as="geometry" />
        </mxCell>
        <mxCell id="6Yh1_W6eSsMe6pJE7CTc-16" value="" style="shape=partialRectangle;top=0;left=0;bottom=0;fillColor=none;align=left;verticalAlign=middle;spacingLeft=4;spacingRight=4;overflow=hidden;rotatable=180;points=[];portConstraint=eastwest;part=1;" parent="6Yh1_W6eSsMe6pJE7CTc-15" vertex="1" connectable="0">
          <mxGeometry width="54" height="26" as="geometry" />
        </mxCell>
        <mxCell id="6Yh1_W6eSsMe6pJE7CTc-17" value="user_groups" style="swimlane;fontStyle=0;childLayout=stackLayout;horizontal=1;startSize=26;fillColor=default;horizontalStack=0;resizeParent=1;resizeLast=0;collapsible=1;marginBottom=0;swimlaneFillColor=default;align=center;" parent="1" vertex="1">
          <mxGeometry x="250" y="56" width="200" height="104" as="geometry" />
        </mxCell>
        <mxCell id="6Yh1_W6eSsMe6pJE7CTc-18" value="&quot;id&quot;&#x9;INTEGER" style="shape=partialRectangle;top=0;left=0;right=0;bottom=0;align=left;verticalAlign=top;spacingTop=-2;fillColor=none;spacingLeft=64;spacingRight=4;overflow=hidden;rotatable=0;points=[[0,0.5],[1,0.5]];portConstraint=eastwest;dropTarget=0;" parent="6Yh1_W6eSsMe6pJE7CTc-17" vertex="1">
          <mxGeometry y="26" width="200" height="26" as="geometry" />
        </mxCell>
        <mxCell id="6Yh1_W6eSsMe6pJE7CTc-19" value="" style="shape=partialRectangle;top=0;left=0;bottom=0;fillColor=none;align=left;verticalAlign=middle;spacingLeft=4;spacingRight=4;overflow=hidden;rotatable=180;points=[];portConstraint=eastwest;part=1;" parent="6Yh1_W6eSsMe6pJE7CTc-18" vertex="1" connectable="0">
          <mxGeometry width="54" height="26" as="geometry" />
        </mxCell>
        <mxCell id="6Yh1_W6eSsMe6pJE7CTc-20" value="&quot;user_id&quot;&#x9;INTEGER" style="shape=partialRectangle;top=0;left=0;right=0;bottom=0;align=left;verticalAlign=top;spacingTop=-2;fillColor=none;spacingLeft=64;spacingRight=4;overflow=hidden;rotatable=0;points=[[0,0.5],[1,0.5]];portConstraint=eastwest;dropTarget=0;" parent="6Yh1_W6eSsMe6pJE7CTc-17" vertex="1">
          <mxGeometry y="52" width="200" height="26" as="geometry" />
        </mxCell>
        <mxCell id="6Yh1_W6eSsMe6pJE7CTc-21" value="" style="shape=partialRectangle;top=0;left=0;bottom=0;fillColor=none;align=left;verticalAlign=middle;spacingLeft=4;spacingRight=4;overflow=hidden;rotatable=180;points=[];portConstraint=eastwest;part=1;" parent="6Yh1_W6eSsMe6pJE7CTc-20" vertex="1" connectable="0">
          <mxGeometry width="54" height="26" as="geometry" />
        </mxCell>
        <mxCell id="6Yh1_W6eSsMe6pJE7CTc-22" value="&quot;group_id&quot;&#x9;INTEGER" style="shape=partialRectangle;top=0;left=0;right=0;bottom=0;align=left;verticalAlign=top;spacingTop=-2;fillColor=none;spacingLeft=64;spacingRight=4;overflow=hidden;rotatable=0;points=[[0,0.5],[1,0.5]];portConstraint=eastwest;dropTarget=0;" parent="6Yh1_W6eSsMe6pJE7CTc-17" vertex="1">
          <mxGeometry y="78" width="200" height="26" as="geometry" />
        </mxCell>
        <mxCell id="6Yh1_W6eSsMe6pJE7CTc-23" value="" style="shape=partialRectangle;top=0;left=0;bottom=0;fillColor=none;align=left;verticalAlign=middle;spacingLeft=4;spacingRight=4;overflow=hidden;rotatable=180;points=[];portConstraint=eastwest;part=1;" parent="6Yh1_W6eSsMe6pJE7CTc-22" vertex="1" connectable="0">
          <mxGeometry width="54" height="26" as="geometry" />
        </mxCell>
        <mxCell id="6Yh1_W6eSsMe6pJE7CTc-24" value="user_status" style="swimlane;fontStyle=0;childLayout=stackLayout;horizontal=1;startSize=26;fillColor=default;horizontalStack=0;resizeParent=1;resizeLast=0;collapsible=1;marginBottom=0;swimlaneFillColor=default;align=center;" parent="1" vertex="1">
          <mxGeometry x="250" y="300" width="200" height="78" as="geometry" />
        </mxCell>
        <mxCell id="6Yh1_W6eSsMe6pJE7CTc-25" value="&quot;id&quot;&#x9;INTEGER" style="shape=partialRectangle;top=0;left=0;right=0;bottom=0;align=left;verticalAlign=top;spacingTop=-2;fillColor=none;spacingLeft=64;spacingRight=4;overflow=hidden;rotatable=0;points=[[0,0.5],[1,0.5]];portConstraint=eastwest;dropTarget=0;" parent="6Yh1_W6eSsMe6pJE7CTc-24" vertex="1">
          <mxGeometry y="26" width="200" height="26" as="geometry" />
        </mxCell>
        <mxCell id="6Yh1_W6eSsMe6pJE7CTc-26" value="" style="shape=partialRectangle;top=0;left=0;bottom=0;fillColor=none;align=left;verticalAlign=middle;spacingLeft=4;spacingRight=4;overflow=hidden;rotatable=180;points=[];portConstraint=eastwest;part=1;" parent="6Yh1_W6eSsMe6pJE7CTc-25" vertex="1" connectable="0">
          <mxGeometry width="54" height="26" as="geometry" />
        </mxCell>
        <mxCell id="6Yh1_W6eSsMe6pJE7CTc-27" value="&quot;status&quot;&#x9;TEXT" style="shape=partialRectangle;top=0;left=0;right=0;bottom=0;align=left;verticalAlign=top;spacingTop=-2;fillColor=none;spacingLeft=64;spacingRight=4;overflow=hidden;rotatable=0;points=[[0,0.5],[1,0.5]];portConstraint=eastwest;dropTarget=0;" parent="6Yh1_W6eSsMe6pJE7CTc-24" vertex="1">
          <mxGeometry y="52" width="200" height="26" as="geometry" />
        </mxCell>
        <mxCell id="6Yh1_W6eSsMe6pJE7CTc-28" value="" style="shape=partialRectangle;top=0;left=0;bottom=0;fillColor=none;align=left;verticalAlign=middle;spacingLeft=4;spacingRight=4;overflow=hidden;rotatable=180;points=[];portConstraint=eastwest;part=1;" parent="6Yh1_W6eSsMe6pJE7CTc-27" vertex="1" connectable="0">
          <mxGeometry width="54" height="26" as="geometry" />
        </mxCell>
        <mxCell id="6Yh1_W6eSsMe6pJE7CTc-30" value="" style="edgeStyle=entityRelationEdgeStyle;fontSize=12;html=1;endArrow=ERoneToMany;rounded=0;exitX=1;exitY=0.5;exitDx=0;exitDy=0;entryX=0;entryY=0.5;entryDx=0;entryDy=0;" parent="1" source="6Yh1_W6eSsMe6pJE7CTc-2" target="6Yh1_W6eSsMe6pJE7CTc-20" edge="1">
          <mxGeometry width="100" height="100" relative="1" as="geometry">
            <mxPoint x="390" y="480" as="sourcePoint" />
            <mxPoint x="490" y="380" as="targetPoint" />
          </mxGeometry>
        </mxCell>
        <mxCell id="6Yh1_W6eSsMe6pJE7CTc-31" value="" style="edgeStyle=entityRelationEdgeStyle;fontSize=12;html=1;endArrow=ERmandOne;startArrow=ERmandOne;rounded=0;exitX=0;exitY=0.5;exitDx=0;exitDy=0;" parent="1" source="6Yh1_W6eSsMe6pJE7CTc-25" target="6Yh1_W6eSsMe6pJE7CTc-10" edge="1">
          <mxGeometry width="100" height="100" relative="1" as="geometry">
            <mxPoint x="390" y="480" as="sourcePoint" />
            <mxPoint x="490" y="380" as="targetPoint" />
          </mxGeometry>
        </mxCell>
        <mxCell id="6Yh1_W6eSsMe6pJE7CTc-34" value="" style="edgeStyle=entityRelationEdgeStyle;fontSize=12;html=1;endArrow=ERoneToMany;startArrow=ERzeroToMany;rounded=0;exitX=1;exitY=0.5;exitDx=0;exitDy=0;" parent="1" source="6Yh1_W6eSsMe6pJE7CTc-13" target="6Yh1_W6eSsMe6pJE7CTc-22" edge="1">
          <mxGeometry width="100" height="100" relative="1" as="geometry">
            <mxPoint x="580" y="320" as="sourcePoint" />
            <mxPoint x="680" y="220" as="targetPoint" />
          </mxGeometry>
        </mxCell>
        <mxCell id="OXhHKmrEj3yNv-AnouYp-6" value="nfs_exports" style="swimlane;fontStyle=0;childLayout=stackLayout;horizontal=1;startSize=26;fillColor=default;horizontalStack=0;resizeParent=1;resizeLast=0;collapsible=1;marginBottom=0;swimlaneFillColor=default;align=center;" vertex="1" parent="1">
          <mxGeometry x="490" width="320" height="616" as="geometry" />
        </mxCell>
        <mxCell id="OXhHKmrEj3yNv-AnouYp-7" value="&quot;id&quot; INTEGER NOT NULL PRIMARY KEY AUTOINCREMENT UNIQUE" style="shape=partialRectangle;top=0;left=0;right=0;bottom=0;align=left;verticalAlign=top;spacingTop=-2;fillColor=none;spacingLeft=64;spacingRight=4;overflow=hidden;rotatable=0;points=[[0,0.5],[1,0.5]];portConstraint=eastwest;dropTarget=0;fontSize=12;whiteSpace=wrap;" vertex="1" parent="OXhHKmrEj3yNv-AnouYp-6">
          <mxGeometry y="26" width="320" height="34" as="geometry" />
        </mxCell>
        <mxCell id="OXhHKmrEj3yNv-AnouYp-8" value="" style="shape=partialRectangle;top=0;left=0;bottom=0;fillColor=none;align=left;verticalAlign=middle;spacingLeft=4;spacingRight=4;overflow=hidden;rotatable=180;points=[];portConstraint=eastwest;part=1;" vertex="1" connectable="0" parent="OXhHKmrEj3yNv-AnouYp-7">
          <mxGeometry width="54" height="34" as="geometry" />
        </mxCell>
        <mxCell id="OXhHKmrEj3yNv-AnouYp-9" value="&quot;user_id&quot; INTEGER NOT NULL" style="shape=partialRectangle;top=0;left=0;right=0;bottom=0;align=left;verticalAlign=top;spacingTop=-2;fillColor=none;spacingLeft=64;spacingRight=4;overflow=hidden;rotatable=0;points=[[0,0.5],[1,0.5]];portConstraint=eastwest;dropTarget=0;fontSize=12;" vertex="1" parent="OXhHKmrEj3yNv-AnouYp-6">
          <mxGeometry y="60" width="320" height="26" as="geometry" />
        </mxCell>
        <mxCell id="OXhHKmrEj3yNv-AnouYp-10" value="" style="shape=partialRectangle;top=0;left=0;bottom=0;fillColor=none;align=left;verticalAlign=middle;spacingLeft=4;spacingRight=4;overflow=hidden;rotatable=180;points=[];portConstraint=eastwest;part=1;" vertex="1" connectable="0" parent="OXhHKmrEj3yNv-AnouYp-9">
          <mxGeometry width="54" height="26" as="geometry" />
        </mxCell>
        <mxCell id="OXhHKmrEj3yNv-AnouYp-11" value="&quot;path&quot; TEXT NOT NULL UNIQUE" style="shape=partialRectangle;top=0;left=0;right=0;bottom=0;align=left;verticalAlign=top;spacingTop=-2;fillColor=none;spacingLeft=64;spacingRight=4;overflow=hidden;rotatable=0;points=[[0,0.5],[1,0.5]];portConstraint=eastwest;dropTarget=0;fontSize=12;" vertex="1" parent="OXhHKmrEj3yNv-AnouYp-6">
          <mxGeometry y="86" width="320" height="26" as="geometry" />
        </mxCell>
        <mxCell id="OXhHKmrEj3yNv-AnouYp-12" value="" style="shape=partialRectangle;top=0;left=0;bottom=0;fillColor=none;align=left;verticalAlign=middle;spacingLeft=4;spacingRight=4;overflow=hidden;rotatable=180;points=[];portConstraint=eastwest;part=1;" vertex="1" connectable="0" parent="OXhHKmrEj3yNv-AnouYp-11">
          <mxGeometry width="54" height="26" as="geometry" />
        </mxCell>
        <mxCell id="OXhHKmrEj3yNv-AnouYp-13" value="    &quot;sec&quot; TEXT DEFAULT NULL&#xa;" style="shape=partialRectangle;top=0;left=0;right=0;bottom=0;align=left;verticalAlign=top;spacingTop=-2;fillColor=none;spacingLeft=64;spacingRight=4;overflow=hidden;rotatable=0;points=[[0,0.5],[1,0.5]];portConstraint=eastwest;dropTarget=0;" vertex="1" parent="OXhHKmrEj3yNv-AnouYp-6">
          <mxGeometry y="112" width="320" height="26" as="geometry" />
        </mxCell>
        <mxCell id="OXhHKmrEj3yNv-AnouYp-14" value="" style="shape=partialRectangle;top=0;left=0;bottom=0;fillColor=none;align=left;verticalAlign=middle;spacingLeft=4;spacingRight=4;overflow=hidden;rotatable=180;points=[];portConstraint=eastwest;part=1;" vertex="1" connectable="0" parent="OXhHKmrEj3yNv-AnouYp-13">
          <mxGeometry width="54" height="26" as="geometry" />
        </mxCell>
        <mxCell id="OXhHKmrEj3yNv-AnouYp-15" value="    &quot;ro&quot; INTEGER DEFAULT TRUE&#xa;" style="shape=partialRectangle;top=0;left=0;right=0;bottom=0;align=left;verticalAlign=top;spacingTop=-2;fillColor=none;spacingLeft=64;spacingRight=4;overflow=hidden;rotatable=0;points=[[0,0.5],[1,0.5]];portConstraint=eastwest;dropTarget=0;" vertex="1" parent="OXhHKmrEj3yNv-AnouYp-6">
          <mxGeometry y="138" width="320" height="26" as="geometry" />
        </mxCell>
        <mxCell id="OXhHKmrEj3yNv-AnouYp-16" value="" style="shape=partialRectangle;top=0;left=0;bottom=0;fillColor=none;align=left;verticalAlign=middle;spacingLeft=4;spacingRight=4;overflow=hidden;rotatable=180;points=[];portConstraint=eastwest;part=1;" vertex="1" connectable="0" parent="OXhHKmrEj3yNv-AnouYp-15">
          <mxGeometry width="54" height="26" as="geometry" />
        </mxCell>
        <mxCell id="OXhHKmrEj3yNv-AnouYp-17" value="    &quot;sync&quot; INTEGER DEFAULT TRUE" style="shape=partialRectangle;top=0;left=0;right=0;bottom=0;align=left;verticalAlign=top;spacingTop=-2;fillColor=none;spacingLeft=64;spacingRight=4;overflow=hidden;rotatable=0;points=[[0,0.5],[1,0.5]];portConstraint=eastwest;dropTarget=0;" vertex="1" parent="OXhHKmrEj3yNv-AnouYp-6">
          <mxGeometry y="164" width="320" height="26" as="geometry" />
        </mxCell>
        <mxCell id="OXhHKmrEj3yNv-AnouYp-18" value="" style="shape=partialRectangle;top=0;left=0;bottom=0;fillColor=none;align=left;verticalAlign=middle;spacingLeft=4;spacingRight=4;overflow=hidden;rotatable=180;points=[];portConstraint=eastwest;part=1;" vertex="1" connectable="0" parent="OXhHKmrEj3yNv-AnouYp-17">
          <mxGeometry width="54" height="26" as="geometry" />
        </mxCell>
        <mxCell id="OXhHKmrEj3yNv-AnouYp-19" value="&quot;wdelay&quot; INTEGER DEFAULT TRUE" style="shape=partialRectangle;top=0;left=0;right=0;bottom=0;align=left;verticalAlign=top;spacingTop=-2;fillColor=none;spacingLeft=64;spacingRight=4;overflow=hidden;rotatable=0;points=[[0,0.5],[1,0.5]];portConstraint=eastwest;dropTarget=0;" vertex="1" parent="OXhHKmrEj3yNv-AnouYp-6">
          <mxGeometry y="190" width="320" height="26" as="geometry" />
        </mxCell>
        <mxCell id="OXhHKmrEj3yNv-AnouYp-20" value="" style="shape=partialRectangle;top=0;left=0;bottom=0;fillColor=none;align=left;verticalAlign=middle;spacingLeft=4;spacingRight=4;overflow=hidden;rotatable=180;points=[];portConstraint=eastwest;part=1;" vertex="1" connectable="0" parent="OXhHKmrEj3yNv-AnouYp-19">
          <mxGeometry width="54" height="26" as="geometry" />
        </mxCell>
        <mxCell id="OXhHKmrEj3yNv-AnouYp-21" value="  &quot;hide&quot; INTEGER DEFAULT TRUE" style="shape=partialRectangle;top=0;left=0;right=0;bottom=0;align=left;verticalAlign=top;spacingTop=-2;fillColor=none;spacingLeft=64;spacingRight=4;overflow=hidden;rotatable=0;points=[[0,0.5],[1,0.5]];portConstraint=eastwest;dropTarget=0;" vertex="1" parent="OXhHKmrEj3yNv-AnouYp-6">
          <mxGeometry y="216" width="320" height="26" as="geometry" />
        </mxCell>
        <mxCell id="OXhHKmrEj3yNv-AnouYp-22" value="" style="shape=partialRectangle;top=0;left=0;bottom=0;fillColor=none;align=left;verticalAlign=middle;spacingLeft=4;spacingRight=4;overflow=hidden;rotatable=180;points=[];portConstraint=eastwest;part=1;" vertex="1" connectable="0" parent="OXhHKmrEj3yNv-AnouYp-21">
          <mxGeometry width="54" height="26" as="geometry" />
        </mxCell>
        <mxCell id="OXhHKmrEj3yNv-AnouYp-23" value="&quot;crossmnt&quot; INTEGER DEFAULT TRUE" style="shape=partialRectangle;top=0;left=0;right=0;bottom=0;align=left;verticalAlign=top;spacingTop=-2;fillColor=none;spacingLeft=64;spacingRight=4;overflow=hidden;rotatable=0;points=[[0,0.5],[1,0.5]];portConstraint=eastwest;dropTarget=0;" vertex="1" parent="OXhHKmrEj3yNv-AnouYp-6">
          <mxGeometry y="242" width="320" height="26" as="geometry" />
        </mxCell>
        <mxCell id="OXhHKmrEj3yNv-AnouYp-24" value="" style="shape=partialRectangle;top=0;left=0;bottom=0;fillColor=none;align=left;verticalAlign=middle;spacingLeft=4;spacingRight=4;overflow=hidden;rotatable=180;points=[];portConstraint=eastwest;part=1;" vertex="1" connectable="0" parent="OXhHKmrEj3yNv-AnouYp-23">
          <mxGeometry width="54" height="26" as="geometry" />
        </mxCell>
        <mxCell id="OXhHKmrEj3yNv-AnouYp-25" value="&quot;subtree_check&quot; INTEGER DEFAULT FALSE" style="shape=partialRectangle;top=0;left=0;right=0;bottom=0;align=left;verticalAlign=top;spacingTop=-2;fillColor=none;spacingLeft=64;spacingRight=4;overflow=hidden;rotatable=0;points=[[0,0.5],[1,0.5]];portConstraint=eastwest;dropTarget=0;" vertex="1" parent="OXhHKmrEj3yNv-AnouYp-6">
          <mxGeometry y="268" width="320" height="26" as="geometry" />
        </mxCell>
        <mxCell id="OXhHKmrEj3yNv-AnouYp-26" value="" style="shape=partialRectangle;top=0;left=0;bottom=0;fillColor=none;align=left;verticalAlign=middle;spacingLeft=4;spacingRight=4;overflow=hidden;rotatable=180;points=[];portConstraint=eastwest;part=1;" vertex="1" connectable="0" parent="OXhHKmrEj3yNv-AnouYp-25">
          <mxGeometry width="54" height="26" as="geometry" />
        </mxCell>
        <mxCell id="OXhHKmrEj3yNv-AnouYp-27" value="&quot;secure_locks&quot; INTEGER DEFAULT TRUE" style="shape=partialRectangle;top=0;left=0;right=0;bottom=0;align=left;verticalAlign=top;spacingTop=-2;fillColor=none;spacingLeft=64;spacingRight=4;overflow=hidden;rotatable=0;points=[[0,0.5],[1,0.5]];portConstraint=eastwest;dropTarget=0;whiteSpace=wrap;" vertex="1" parent="OXhHKmrEj3yNv-AnouYp-6">
          <mxGeometry y="294" width="320" height="26" as="geometry" />
        </mxCell>
        <mxCell id="OXhHKmrEj3yNv-AnouYp-28" value="" style="shape=partialRectangle;top=0;left=0;bottom=0;fillColor=none;align=left;verticalAlign=middle;spacingLeft=4;spacingRight=4;overflow=hidden;rotatable=180;points=[];portConstraint=eastwest;part=1;" vertex="1" connectable="0" parent="OXhHKmrEj3yNv-AnouYp-27">
          <mxGeometry width="54" height="26" as="geometry" />
        </mxCell>
        <mxCell id="OXhHKmrEj3yNv-AnouYp-29" value="&quot;mountpoint&quot; TEXT DEFAULT NULL" style="shape=partialRectangle;top=0;left=0;right=0;bottom=0;align=left;verticalAlign=top;spacingTop=-2;fillColor=none;spacingLeft=64;spacingRight=4;overflow=hidden;rotatable=0;points=[[0,0.5],[1,0.5]];portConstraint=eastwest;dropTarget=0;" vertex="1" parent="OXhHKmrEj3yNv-AnouYp-6">
          <mxGeometry y="320" width="320" height="26" as="geometry" />
        </mxCell>
        <mxCell id="OXhHKmrEj3yNv-AnouYp-30" value="" style="shape=partialRectangle;top=0;left=0;bottom=0;fillColor=none;align=left;verticalAlign=middle;spacingLeft=4;spacingRight=4;overflow=hidden;rotatable=180;points=[];portConstraint=eastwest;part=1;" vertex="1" connectable="0" parent="OXhHKmrEj3yNv-AnouYp-29">
          <mxGeometry width="54" height="26" as="geometry" />
        </mxCell>
        <mxCell id="OXhHKmrEj3yNv-AnouYp-31" value="&quot;fsid&quot; TEXT DEFAULT NULL" style="shape=partialRectangle;top=0;left=0;right=0;bottom=0;align=left;verticalAlign=top;spacingTop=-2;fillColor=none;spacingLeft=64;spacingRight=4;overflow=hidden;rotatable=0;points=[[0,0.5],[1,0.5]];portConstraint=eastwest;dropTarget=0;" vertex="1" parent="OXhHKmrEj3yNv-AnouYp-6">
          <mxGeometry y="346" width="320" height="26" as="geometry" />
        </mxCell>
        <mxCell id="OXhHKmrEj3yNv-AnouYp-32" value="" style="shape=partialRectangle;top=0;left=0;bottom=0;fillColor=none;align=left;verticalAlign=middle;spacingLeft=4;spacingRight=4;overflow=hidden;rotatable=180;points=[];portConstraint=eastwest;part=1;" vertex="1" connectable="0" parent="OXhHKmrEj3yNv-AnouYp-31">
          <mxGeometry width="54" height="26" as="geometry" />
        </mxCell>
        <mxCell id="OXhHKmrEj3yNv-AnouYp-33" value="&quot;nordirplus&quot; INTEGER DEFAULT FALSE" style="shape=partialRectangle;top=0;left=0;right=0;bottom=0;align=left;verticalAlign=top;spacingTop=-2;fillColor=none;spacingLeft=64;spacingRight=4;overflow=hidden;rotatable=0;points=[[0,0.5],[1,0.5]];portConstraint=eastwest;dropTarget=0;" vertex="1" parent="OXhHKmrEj3yNv-AnouYp-6">
          <mxGeometry y="372" width="320" height="26" as="geometry" />
        </mxCell>
        <mxCell id="OXhHKmrEj3yNv-AnouYp-34" value="" style="shape=partialRectangle;top=0;left=0;bottom=0;fillColor=none;align=left;verticalAlign=middle;spacingLeft=4;spacingRight=4;overflow=hidden;rotatable=180;points=[];portConstraint=eastwest;part=1;" vertex="1" connectable="0" parent="OXhHKmrEj3yNv-AnouYp-33">
          <mxGeometry width="54" height="26" as="geometry" />
        </mxCell>
        <mxCell id="OXhHKmrEj3yNv-AnouYp-35" value="&quot;refer&quot; TEXT DEFAULT NULL" style="shape=partialRectangle;top=0;left=0;right=0;bottom=0;align=left;verticalAlign=top;spacingTop=-2;fillColor=none;spacingLeft=64;spacingRight=4;overflow=hidden;rotatable=0;points=[[0,0.5],[1,0.5]];portConstraint=eastwest;dropTarget=0;" vertex="1" parent="OXhHKmrEj3yNv-AnouYp-6">
          <mxGeometry y="398" width="320" height="26" as="geometry" />
        </mxCell>
        <mxCell id="OXhHKmrEj3yNv-AnouYp-36" value="" style="shape=partialRectangle;top=0;left=0;bottom=0;fillColor=none;align=left;verticalAlign=middle;spacingLeft=4;spacingRight=4;overflow=hidden;rotatable=180;points=[];portConstraint=eastwest;part=1;" vertex="1" connectable="0" parent="OXhHKmrEj3yNv-AnouYp-35">
          <mxGeometry width="54" height="26" as="geometry" />
        </mxCell>
        <mxCell id="OXhHKmrEj3yNv-AnouYp-37" value="&quot;replicas&quot; TEXT DEFAULT NULL" style="shape=partialRectangle;top=0;left=0;right=0;bottom=0;align=left;verticalAlign=top;spacingTop=-2;fillColor=none;spacingLeft=64;spacingRight=4;overflow=hidden;rotatable=0;points=[[0,0.5],[1,0.5]];portConstraint=eastwest;dropTarget=0;" vertex="1" parent="OXhHKmrEj3yNv-AnouYp-6">
          <mxGeometry y="424" width="320" height="26" as="geometry" />
        </mxCell>
        <mxCell id="OXhHKmrEj3yNv-AnouYp-38" value="" style="shape=partialRectangle;top=0;left=0;bottom=0;fillColor=none;align=left;verticalAlign=middle;spacingLeft=4;spacingRight=4;overflow=hidden;rotatable=180;points=[];portConstraint=eastwest;part=1;" vertex="1" connectable="0" parent="OXhHKmrEj3yNv-AnouYp-37">
          <mxGeometry width="54" height="26" as="geometry" />
        </mxCell>
        <mxCell id="OXhHKmrEj3yNv-AnouYp-39" value="&quot;pnfs&quot; INTEGER DEFAULT FALSE" style="shape=partialRectangle;top=0;left=0;right=0;bottom=0;align=left;verticalAlign=top;spacingTop=-2;fillColor=none;spacingLeft=64;spacingRight=4;overflow=hidden;rotatable=0;points=[[0,0.5],[1,0.5]];portConstraint=eastwest;dropTarget=0;" vertex="1" parent="OXhHKmrEj3yNv-AnouYp-6">
          <mxGeometry y="450" width="320" height="26" as="geometry" />
        </mxCell>
        <mxCell id="OXhHKmrEj3yNv-AnouYp-40" value="" style="shape=partialRectangle;top=0;left=0;bottom=0;fillColor=none;align=left;verticalAlign=middle;spacingLeft=4;spacingRight=4;overflow=hidden;rotatable=180;points=[];portConstraint=eastwest;part=1;" vertex="1" connectable="0" parent="OXhHKmrEj3yNv-AnouYp-39">
          <mxGeometry width="54" height="26" as="geometry" />
        </mxCell>
        <mxCell id="OXhHKmrEj3yNv-AnouYp-41" value="&quot;security_label&quot; INTEGER DEFAULT FALSE" style="shape=partialRectangle;top=0;left=0;right=0;bottom=0;align=left;verticalAlign=top;spacingTop=-2;fillColor=none;spacingLeft=64;spacingRight=4;overflow=hidden;rotatable=0;points=[[0,0.5],[1,0.5]];portConstraint=eastwest;dropTarget=0;" vertex="1" parent="OXhHKmrEj3yNv-AnouYp-6">
          <mxGeometry y="476" width="320" height="26" as="geometry" />
        </mxCell>
        <mxCell id="OXhHKmrEj3yNv-AnouYp-42" value="" style="shape=partialRectangle;top=0;left=0;bottom=0;fillColor=none;align=left;verticalAlign=middle;spacingLeft=4;spacingRight=4;overflow=hidden;rotatable=180;points=[];portConstraint=eastwest;part=1;" vertex="1" connectable="0" parent="OXhHKmrEj3yNv-AnouYp-41">
          <mxGeometry width="54" height="26" as="geometry" />
        </mxCell>
        <mxCell id="OXhHKmrEj3yNv-AnouYp-43" value="&quot;root_squash&quot; INTEGER DEFAULT TRUE" style="shape=partialRectangle;top=0;left=0;right=0;bottom=0;align=left;verticalAlign=top;spacingTop=-2;fillColor=none;spacingLeft=64;spacingRight=4;overflow=hidden;rotatable=0;points=[[0,0.5],[1,0.5]];portConstraint=eastwest;dropTarget=0;" vertex="1" parent="OXhHKmrEj3yNv-AnouYp-6">
          <mxGeometry y="502" width="320" height="26" as="geometry" />
        </mxCell>
        <mxCell id="OXhHKmrEj3yNv-AnouYp-44" value="" style="shape=partialRectangle;top=0;left=0;bottom=0;fillColor=none;align=left;verticalAlign=middle;spacingLeft=4;spacingRight=4;overflow=hidden;rotatable=180;points=[];portConstraint=eastwest;part=1;" vertex="1" connectable="0" parent="OXhHKmrEj3yNv-AnouYp-43">
          <mxGeometry width="54" height="26" as="geometry" />
        </mxCell>
        <mxCell id="OXhHKmrEj3yNv-AnouYp-45" value="&quot;all_squash&quot; INTEGER DEFAULT FALSE" style="shape=partialRectangle;top=0;left=0;right=0;bottom=0;align=left;verticalAlign=top;spacingTop=-2;fillColor=none;spacingLeft=64;spacingRight=4;overflow=hidden;rotatable=0;points=[[0,0.5],[1,0.5]];portConstraint=eastwest;dropTarget=0;" vertex="1" parent="OXhHKmrEj3yNv-AnouYp-6">
          <mxGeometry y="528" width="320" height="26" as="geometry" />
        </mxCell>
        <mxCell id="OXhHKmrEj3yNv-AnouYp-46" value="" style="shape=partialRectangle;top=0;left=0;bottom=0;fillColor=none;align=left;verticalAlign=middle;spacingLeft=4;spacingRight=4;overflow=hidden;rotatable=180;points=[];portConstraint=eastwest;part=1;" vertex="1" connectable="0" parent="OXhHKmrEj3yNv-AnouYp-45">
          <mxGeometry width="54" height="26" as="geometry" />
        </mxCell>
        <mxCell id="OXhHKmrEj3yNv-AnouYp-47" value="&quot;anonuid&quot; INTEGER DEFAULT NULL" style="shape=partialRectangle;top=0;left=0;right=0;bottom=0;align=left;verticalAlign=top;spacingTop=-2;fillColor=none;spacingLeft=64;spacingRight=4;overflow=hidden;rotatable=0;points=[[0,0.5],[1,0.5]];portConstraint=eastwest;dropTarget=0;" vertex="1" parent="OXhHKmrEj3yNv-AnouYp-6">
          <mxGeometry y="554" width="320" height="26" as="geometry" />
        </mxCell>
        <mxCell id="OXhHKmrEj3yNv-AnouYp-48" value="" style="shape=partialRectangle;top=0;left=0;bottom=0;fillColor=none;align=left;verticalAlign=middle;spacingLeft=4;spacingRight=4;overflow=hidden;rotatable=180;points=[];portConstraint=eastwest;part=1;" vertex="1" connectable="0" parent="OXhHKmrEj3yNv-AnouYp-47">
          <mxGeometry width="54" height="26" as="geometry" />
        </mxCell>
        <mxCell id="OXhHKmrEj3yNv-AnouYp-49" value="    &quot;anongid&quot; INTEGER DEFAULT NULL,&#xa;" style="shape=partialRectangle;top=0;left=0;right=0;bottom=0;align=left;verticalAlign=top;spacingTop=-2;fillColor=none;spacingLeft=64;spacingRight=4;overflow=hidden;rotatable=0;points=[[0,0.5],[1,0.5]];portConstraint=eastwest;dropTarget=0;" vertex="1" parent="OXhHKmrEj3yNv-AnouYp-6">
          <mxGeometry y="580" width="320" height="26" as="geometry" />
        </mxCell>
        <mxCell id="OXhHKmrEj3yNv-AnouYp-50" value="" style="shape=partialRectangle;top=0;left=0;bottom=0;fillColor=none;align=left;verticalAlign=middle;spacingLeft=4;spacingRight=4;overflow=hidden;rotatable=180;points=[];portConstraint=eastwest;part=1;" vertex="1" connectable="0" parent="OXhHKmrEj3yNv-AnouYp-49">
          <mxGeometry width="54" height="26" as="geometry" />
        </mxCell>
        <mxCell id="OXhHKmrEj3yNv-AnouYp-55" value="" style="edgeStyle=orthogonalEdgeStyle;fontSize=12;html=1;endArrow=ERzeroToMany;startArrow=none;rounded=0;jumpStyle=none;startFill=0;" edge="1" parent="1" source="6Yh1_W6eSsMe6pJE7CTc-2" target="OXhHKmrEj3yNv-AnouYp-9">
          <mxGeometry width="100" height="100" relative="1" as="geometry">
            <mxPoint x="70" y="370" as="sourcePoint" />
            <mxPoint x="390" y="509.9999999999999" as="targetPoint" />
            <Array as="points">
              <mxPoint x="460" y="39" />
              <mxPoint x="460" y="73" />
            </Array>
          </mxGeometry>
        </mxCell>
      </root>
    </mxGraphModel>
  </diagram>
</mxfile>
